<svg xmlns="http://www.w3.org/2000/svg" xmlns:xlink="http://www.w3.org/1999/xlink" id="Layer_1" x="0" y="0" version="1.1" viewBox="0 0 39.7 30.3" xml:space="preserve" style="enable-background:new 0 0 39.7 30.3"><style type="text/css">.st0{fill:currentColor}</style><path d="M36.2,6.1H3.6C2,6.1,0.8,4.9,0.8,3.3v0c0-1.6,1.3-2.8,2.8-2.8h32.6c1.6,0,2.8,1.3,2.8,2.8v0	C39,4.9,37.8,6.1,36.2,6.1z" class="st0"/><path d="M36.2,17.8H3.6c-1.6,0-2.8-1.3-2.8-2.8v0c0-1.6,1.3-2.8,2.8-2.8h32.6c1.6,0,2.8,1.3,2.8,2.8v0	C39,16.6,37.8,17.8,36.2,17.8z" class="st0"/><path d="M36.2,29.5H3.6c-1.6,0-2.8-1.3-2.8-2.8v0c0-1.6,1.3-2.8,2.8-2.8h32.6c1.6,0,2.8,1.3,2.8,2.8v0	C39,28.3,37.8,29.5,36.2,29.5z" class="st0"/><g><image style="overflow:visible" id="Layer_0_1_" width="80" height="62" transform="matrix(0.5 0 0 0.5 54 32.5)" xlink:href="C57A182C93E560A1.png"/></g></svg>